<svg xmlns="http://www.w3.org/2000/svg" viewBox="0 0 250 125"><defs><linearGradient id="a" x1="100%" x2="0%" y1="0%" y2="100%"><stop offset="0%" stop-color="#EE751C"/><stop offset="100%" stop-color="#E63020"/></linearGradient><linearGradient id="b" x1="0%" x2="94.244%" y1="39.451%" y2="60.549%"><stop offset="0%" stop-color="#E63020"/><stop offset="100%" stop-color="#EE751C"/></linearGradient></defs><g fill="none" fill-rule="evenodd" transform="translate(11 14)"><circle cx="218.5" cy="86.5" r="9.5" fill="url(#a)"/><path fill="url(#b)" fill-rule="nonzero" d="M158.4 0C189.696 0 209 20.023 209 48s-19.579 48-50.6 48h-28.541V49.646h13.098v33.188h15.304c22.612 0 37.227-13.44 37.227-34.834 0-21.394-14.063-34.971-37.089-34.971l-28.189-.001L96.954 96H84.128L67.716 57.051 51.304 96H38.478L0 0h14.067l30.755 76.387 15.722-36.341L43.72 0h14.067l9.93 23.314L77.784 0h13.93L74.887 39.909l15.721 36.478L121.503 0h36.896z"/></g></svg>